<svg width="654" height="109" viewBox="0 0 654 109" fill="none" xmlns="http://www.w3.org/2000/svg">
<path d="M0 29.4189V10.4357C0 9.00423 1.16048 7.84375 2.592 7.84375H96.2343C98.4626 7.84375 99.6523 10.4694 98.1831 12.1448L40.7279 77.6599H99.363C100.794 77.6599 101.955 78.8204 101.955 80.2519V98.5638C101.955 99.9953 100.794 101.156 99.363 101.156H25.8434C23.615 101.156 22.4254 98.5301 23.8946 96.8547L40.7279 77.6599H11.1701C8.92854 77.6599 7.74383 75.0071 9.23997 73.3379L42.4083 36.3329C43.9044 34.6637 42.7197 32.0109 40.4781 32.0109H2.592C1.16048 32.0109 0 30.8504 0 29.4189Z" fill="#33F8A6"/>
<path d="M132.649 87V78.9608L168.915 27.242L172.041 31.8869H133.721V22.6865H180.527V30.7257L144.619 81.9978L141.582 77.7996H181.063V87H132.649ZM184.273 105.311L196.064 78.8715L198.119 75.4772L210.981 41.4446H222.951L195.707 105.311H184.273ZM194.367 86.5534L175.877 41.4446H188.114L203.567 82.3551L194.367 86.5534ZM249.939 87.8932C245.591 87.8932 242.048 86.8809 239.309 84.8562C236.629 82.772 234.962 79.9136 234.307 76.2811L235.2 76.1918V105.311H223.945V41.4446H234.932V51.7169L234.039 51.5383C234.872 48.1439 236.778 45.4642 239.756 43.4991C242.733 41.5339 246.366 40.5514 250.653 40.5514C254.702 40.5514 258.216 41.5339 261.193 43.4991C264.23 45.4046 266.583 48.1142 268.25 51.6276C269.917 55.141 270.751 59.2797 270.751 64.0437C270.751 68.8672 269.888 73.0654 268.161 76.6384C266.434 80.2114 264.022 82.9804 260.925 84.9455C257.829 86.9107 254.167 87.8932 249.939 87.8932ZM247.08 78.6035C250.713 78.6035 253.601 77.353 255.745 74.8519C257.888 72.2913 258.96 68.7183 258.96 64.133C258.96 59.5477 257.859 56.0045 255.655 53.5034C253.511 51.0023 250.623 49.7518 246.991 49.7518C243.418 49.7518 240.53 51.0321 238.326 53.5927C236.123 56.0938 235.021 59.637 235.021 64.2223C235.021 68.8076 236.123 72.3508 238.326 74.8519C240.53 77.353 243.448 78.6035 247.08 78.6035ZM300.058 87.8932C295.711 87.8932 292.168 86.8809 289.428 84.8562C286.748 82.772 285.081 79.9136 284.426 76.2811L285.319 76.1918V105.311H274.064V41.4446H285.051V51.7169L284.158 51.5383C284.992 48.1439 286.897 45.4642 289.875 43.4991C292.852 41.5339 296.485 40.5514 300.772 40.5514C304.822 40.5514 308.335 41.5339 311.313 43.4991C314.35 45.4046 316.702 48.1142 318.369 51.6276C320.037 55.141 320.87 59.2797 320.87 64.0437C320.87 68.8672 320.007 73.0654 318.28 76.6384C316.553 80.2114 314.141 82.9804 311.045 84.9455C307.948 86.9107 304.286 87.8932 300.058 87.8932ZM297.199 78.6035C300.832 78.6035 303.72 77.353 305.864 74.8519C308.008 72.2913 309.08 68.7183 309.08 64.133C309.08 59.5477 307.978 56.0045 305.775 53.5034C303.631 51.0023 300.743 49.7518 297.11 49.7518C293.537 49.7518 290.649 51.0321 288.446 53.5927C286.242 56.0938 285.141 59.637 285.141 64.2223C285.141 68.8076 286.242 72.3508 288.446 74.8519C290.649 77.353 293.567 78.6035 297.199 78.6035ZM335.649 87V22.6865H364.501C369.206 22.6865 373.225 23.4904 376.56 25.0983C379.954 26.7061 382.545 28.969 384.331 31.8869C386.177 34.8048 387.1 38.2587 387.1 42.2485C387.1 46.1788 386.177 49.6327 384.331 52.6101C382.485 55.5876 379.895 57.9101 376.56 59.5774C373.225 61.1853 369.206 61.9892 364.501 61.9892H344.671V52.8781H363.965C367.657 52.8781 370.486 51.9253 372.451 50.0197C374.476 48.1142 375.488 45.5237 375.488 42.2485C375.488 39.0328 374.476 36.502 372.451 34.656C370.486 32.8099 367.657 31.8869 363.965 31.8869H347.262V87H335.649ZM390.315 87V41.4446H401.302V52.4315H401.57V87H390.315ZM401.57 63.2397L400.409 52.4315C401.481 48.5608 403.297 45.6131 405.858 43.5884C408.418 41.5637 411.485 40.5514 415.058 40.5514C416.309 40.5514 417.202 40.6705 417.738 40.9087V51.5383C417.44 51.4192 417.023 51.3596 416.487 51.3596C415.951 51.3001 415.296 51.2703 414.522 51.2703C410.175 51.2703 406.929 52.2231 404.786 54.1287C402.642 56.0342 401.57 59.0713 401.57 63.2397ZM440.048 87.8932C435.224 87.8932 430.967 86.8809 427.274 84.8562C423.642 82.8315 420.813 80.0327 418.789 76.4597C416.764 72.8272 415.752 68.6885 415.752 64.0437C415.752 59.3988 416.764 55.3196 418.789 51.8062C420.813 48.2928 423.642 45.5535 427.274 43.5884C430.967 41.5637 435.224 40.5514 440.048 40.5514C444.931 40.5514 449.189 41.5637 452.821 43.5884C456.454 45.5535 459.282 48.2928 461.307 51.8062C463.332 55.3196 464.344 59.3988 464.344 64.0437C464.344 68.6885 463.302 72.8272 461.218 76.4597C459.193 80.0327 456.364 82.8315 452.732 84.8562C449.099 86.8809 444.871 87.8932 440.048 87.8932ZM440.048 78.8715C442.43 78.8715 444.574 78.276 446.479 77.085C448.385 75.8345 449.874 74.1075 450.945 71.9042C452.017 69.6413 452.553 66.9914 452.553 63.9543C452.553 59.4881 451.362 55.9747 448.98 53.4141C446.658 50.8534 443.68 49.5731 440.048 49.5731C436.415 49.5731 433.408 50.8534 431.026 53.4141C428.644 55.9747 427.453 59.4881 427.453 63.9543C427.453 66.9914 427.989 69.6413 429.061 71.9042C430.192 74.1075 431.681 75.8345 433.527 77.085C435.433 78.276 437.606 78.8715 440.048 78.8715ZM486.672 87.8932C481.074 87.8932 476.935 86.5832 474.256 83.963C471.635 81.2832 470.325 77.2934 470.325 71.9935V31.083L481.669 26.8847V72.2615C481.669 74.4648 482.265 76.1024 483.456 77.1743C484.647 78.2462 486.523 78.7822 489.083 78.7822C490.096 78.7822 490.989 78.7226 491.763 78.6035C492.597 78.4249 493.371 78.2164 494.086 77.9782V86.732C493.371 87.0893 492.359 87.3573 491.049 87.5359C489.738 87.7741 488.279 87.8932 486.672 87.8932ZM461.572 50.2877V41.4446H494.086V50.2877H461.572ZM516.472 87.8932C511.649 87.8932 507.391 86.8809 503.699 84.8562C500.067 82.8315 497.238 80.0327 495.213 76.4597C493.189 72.8272 492.176 68.6885 492.176 64.0437C492.176 59.3988 493.189 55.3196 495.213 51.8062C497.238 48.2928 500.067 45.5535 503.699 43.5884C507.391 41.5637 511.649 40.5514 516.472 40.5514C521.356 40.5514 525.613 41.5637 529.246 43.5884C532.878 45.5535 535.707 48.2928 537.732 51.8062C539.756 55.3196 540.769 59.3988 540.769 64.0437C540.769 68.6885 539.727 72.8272 537.642 76.4597C535.618 80.0327 532.789 82.8315 529.157 84.8562C525.524 86.8809 521.296 87.8932 516.472 87.8932ZM516.472 78.8715C518.854 78.8715 520.998 78.276 522.904 77.085C524.809 75.8345 526.298 74.1075 527.37 71.9042C528.442 69.6413 528.978 66.9914 528.978 63.9543C528.978 59.4881 527.787 55.9747 525.405 53.4141C523.082 50.8534 520.105 49.5731 516.472 49.5731C512.84 49.5731 509.833 50.8534 507.451 53.4141C505.069 55.9747 503.878 59.4881 503.878 63.9543C503.878 66.9914 504.414 69.6413 505.486 71.9042C506.617 74.1075 508.106 75.8345 509.952 77.085C511.857 78.276 514.031 78.8715 516.472 78.8715ZM563.428 87.8932C558.843 87.8932 554.794 86.8809 551.28 84.8562C547.826 82.8315 545.087 80.0327 543.062 76.4597C541.097 72.8272 540.115 68.7183 540.115 64.133C540.115 59.5477 541.097 55.4983 543.062 51.9849C545.087 48.4119 547.826 45.6131 551.28 43.5884C554.794 41.5637 558.843 40.5514 563.428 40.5514C567.18 40.5514 570.574 41.266 573.611 42.6951C576.648 44.0648 579.15 46.0299 581.115 48.5905C583.08 51.0916 584.33 54.0096 584.866 57.3443H574.058C573.403 54.9028 572.152 52.9972 570.306 51.6276C568.46 50.2579 566.227 49.5731 563.607 49.5731C561.166 49.5731 559.052 50.1686 557.265 51.3596C555.538 52.5506 554.198 54.2478 553.245 56.4511C552.293 58.6544 551.816 61.2151 551.816 64.133C551.816 67.1105 552.293 69.7009 553.245 71.9042C554.198 74.1075 555.568 75.8345 557.354 77.085C559.141 78.276 561.225 78.8715 563.607 78.8715C566.227 78.8715 568.46 78.1867 570.306 76.817C572.152 75.4474 573.403 73.5418 574.058 71.1003H584.866C584.33 74.435 583.05 77.3827 581.025 79.9434C579.06 82.4445 576.559 84.4096 573.522 85.8388C570.545 87.2084 567.18 87.8932 563.428 87.8932ZM608.075 87.8932C603.252 87.8932 598.994 86.8809 595.302 84.8562C591.669 82.8315 588.841 80.0327 586.816 76.4597C584.791 72.8272 583.779 68.6885 583.779 64.0437C583.779 59.3988 584.791 55.3196 586.816 51.8062C588.841 48.2928 591.669 45.5535 595.302 43.5884C598.994 41.5637 603.252 40.5514 608.075 40.5514C612.958 40.5514 617.216 41.5637 620.849 43.5884C624.481 45.5535 627.31 48.2928 629.334 51.8062C631.359 55.3196 632.371 59.3988 632.371 64.0437C632.371 68.6885 631.329 72.8272 629.245 76.4597C627.22 80.0327 624.392 82.8315 620.759 84.8562C617.127 86.8809 612.899 87.8932 608.075 87.8932ZM608.075 78.8715C610.457 78.8715 612.601 78.276 614.507 77.085C616.412 75.8345 617.901 74.1075 618.973 71.9042C620.045 69.6413 620.581 66.9914 620.581 63.9543C620.581 59.4881 619.39 55.9747 617.008 53.4141C614.685 50.8534 611.708 49.5731 608.075 49.5731C604.443 49.5731 601.435 50.8534 599.053 53.4141C596.672 55.9747 595.481 59.4881 595.481 63.9543C595.481 66.9914 596.016 69.6413 597.088 71.9042C598.22 74.1075 599.709 75.8345 601.555 77.085C603.46 78.276 605.634 78.8715 608.075 78.8715ZM635.291 87V22.6865H646.545V87H635.291Z" fill="white"/>
</svg>
