<svg width="331" height="303" viewBox="0 0 331 303" fill="none" xmlns="http://www.w3.org/2000/svg">
<path d="M0 70.0443V8.415C0 3.76752 3.76752 0 8.415 0H312.427C319.662 0 323.524 8.52437 318.754 13.9634L132.224 226.66H322.585C327.232 226.66 331 230.428 331 235.075V294.525C331 299.172 327.232 302.94 322.585 302.94H83.9011C76.6669 302.94 72.8046 294.416 77.5744 288.977L132.224 226.66H36.2641C28.9868 226.66 25.1406 218.048 29.9978 212.629L137.68 92.4909C142.537 87.0717 138.691 78.4593 131.413 78.4593H8.415C3.76752 78.4593 0 74.6917 0 70.0443Z" fill="#33F8A6"/>
</svg>
